<svg xmlns="http://www.w3.org/2000/svg" viewBox="27.28 0 9.093 9.093" height="34.368" width="137.472"><path d="M3.669 6.32c-.276.29-.67.442-1.142.442-.472 0-.869-.154-1.146-.443-.275-.29-.421-.703-.421-1.195 0-.491.145-.903.42-1.19.276-.29.67-.442 1.141-.442.473 0 .87.153 1.146.443.276.289.422.702.422 1.195 0 .49-.146.902-.42 1.19M2.528 2.67C.928 2.67 0 3.624 0 5.13c0 1.507.922 2.453 2.521 2.453 1.6 0 2.528-.953 2.528-2.46 0-1.506-.922-2.453-2.521-2.453M8.315 7.502V5.397c0-.546-.282-.872-.757-.872-.48 0-.777.334-.777.872v2.105h-.899V3.865h.9v.516c.266-.306.61-.584 1.197-.584.78 0 1.235.515 1.235 1.35v2.355zM12.147 7.375c-.171.105-.42.188-.766.188-.63 0-1.058-.251-1.058-1.093V4.576h-.434v-.712h.434v-.93h.898v.93h.889v.712h-.889v1.725c0 .313.167.485.468.485.167 0 .364-.043.458-.105zM15.152 6.244c0 .427-.383.738-.912.738-.405 0-.677-.218-.677-.543v-.013c0-.37.314-.6.82-.6.247 0 .498.043.69.12l.079.03zm-.797-2.42c-.588 0-.973.104-1.354.267l.2.62c.262-.095.61-.195 1.024-.195.598 0 .941.295.941.808v.072a3.662 3.662 0 00-1.026-.132c-.843 0-1.442.378-1.442 1.198v.014c0 .72.548 1.094 1.215 1.094.55 0 .938-.18 1.225-.405v.337h.84v-2.11c0-.985-.497-1.568-1.623-1.568M16.905 7.502V3.865h.88v.732c.235-.502.536-.827 1.218-.8v.794h-.02c-.329.004-.597.096-.797.273-.266.236-.4.617-.4 1.133v1.505zM20.65 3.884l.019-.02h-.899v3.638h.899V3.865zm.046-.552h-.953v-.784h.953zm0-.784l-.019.019zM24.247 6.53c-.19.2-.464.306-.794.306-.326 0-.6-.108-.792-.312-.191-.203-.292-.492-.292-.837 0-.347.099-.637.286-.836.189-.201.463-.307.792-.307.328 0 .602.108.795.312.191.203.292.492.292.837 0 .348-.099.637-.287.836m-.794-2.732c-1.235 0-1.97.733-1.97 1.898 0 1.162.732 1.888 1.963 1.888 1.239 0 1.974-.733 1.974-1.895 0-1.165-.732-1.891-1.967-1.891M31.826 0c-3.09 0-4.546 1.457-4.546 4.547s1.457 4.546 4.546 4.546c3.09 0 4.547-1.457 4.547-4.546 0-3.09-1.458-4.547-4.547-4.547"/><path d="M33.862 3.438a2.363 2.363 0 01-1.234 1.023c-.252.09-.572.087-.795-.154-.06.269-.058.517.042.69a.487.487 0 00.08.105c.07.068.171.125.263.141.09.017.159.024.235.017a2.348 2.348 0 01-.628 1.564 2.421 2.421 0 01-.354-.471 2.366 2.366 0 01-.27-1.58c.05-.264.211-.54.531-.612-.202-.187-.418-.31-.618-.31a.48.48 0 00-.13.018.546.546 0 00-.255.157c-.059.07-.1.126-.132.196a2.347 2.347 0 01-1.039-1.325 2.367 2.367 0 012.089.485c.204.176.362.454.264.767.263-.082.477-.208.577-.38a.49.49 0 00.05-.123.545.545 0 00-.009-.298.838.838 0 00-.104-.214 2.348 2.348 0 011.668-.239 2.383 2.383 0 01-.23.543m1.065-1.058a3.112 3.112 0 00-3.103.225 3.388 3.388 0 00-.177-.11l-.004-.003a3.116 3.116 0 00-2.92-.109l-.032.015.003.035a3.111 3.111 0 001.744 2.573c-.004.07-.008.14-.008.21v.004a3.12 3.12 0 001.366 2.584l.03.02.028-.02a3.112 3.112 0 001.356-2.799c.063-.031.126-.064.186-.098l.004-.003a3.116 3.116 0 001.555-2.475l.003-.034z" fill="#fff"/></svg>