<svg xmlns="http://www.w3.org/2000/svg" version="1.0" viewBox="0 0 512 512"><path d="M261.5 47.7c-23.2 5.2-52.3 16.7-68.3 26.9-16 10.3-27.2 26.4-27.2 39.2 0 3.5.6 4.9 2.8 7.2 5.7 5.7 23.3 8.3 37.9 5.7 8.6-1.6 21.6-7.2 21-9.1-.5-1.3-1.1-1.3-10.9.8-12.8 2.7-30.9 1.6-34.9-2-2.6-2.3-2.5-10.2 0-15.3 6.3-12.3 39.6-31 67.9-38.2 15.1-3.9 32.5-4.9 42.5-2.5 13 3.1 25.5 10.9 33.3 20.8 5.4 6.9 11.5 19.6 14 29.3 2.4 9.3 2.4 32.1 0 45.5-4 22.2-14.4 59.2-25.7 91.2l-6.1 17.3-21 11c-28.7 14.9-41.1 22.4-53.3 32.2-10.3 8.2-25.8 23.5-35 34.3-14.6 17.2-36.2 55.7-38.4 68.4-1.2 7.1.2 17.4 3.2 23.3 6.1 11.7 18.9 14.6 34.9 7.7 25.4-10.8 48.7-28.7 64.7-49.7 15.6-20.5 24.7-38.8 45.7-92.1l11.7-29.9 9.6-4.5c22.9-10.6 45.7-23.4 54.4-30.3 4.8-3.9 8.7-7.7 8.7-8.5 0-.7-1.1-1.6-2.4-2-1.7-.4-4.1.6-9.2 4.1-9.2 6.2-52.9 27.3-54.1 26.1-.3-.3 1.1-4.7 3.1-9.8 7.8-20.3 15.6-48 19.1-68.2 6.9-40.3 2.4-81-11.3-100.8-10.1-14.7-25.9-24.3-45.6-27.7-5.8-1.1-27.1-1.3-31.1-.4zm34.4 247c-17.8 43.7-39.6 81.6-57.9 100.6-11.9 12.5-22.4 20.3-36.6 27.3-13.3 6.5-17.5 7.5-20.5 4.8-3.9-3.6-6.3-9.5-6.3-16.1-.1-5.4.4-7.2 4.8-15.5 10.4-20 23.2-41.5 30.2-50.8 10.7-14.3 29.6-31.5 45.4-41.5 6.1-3.9 44.2-23.4 45.7-23.5.7 0-1.3 6.1-4.8 14.7z"/></svg>