<svg xmlns="http://www.w3.org/2000/svg" viewBox="0 0 50 59.87"><path d="M58.2 19.33h5.39l4.72 15.45 5.12-15.52h4.3l5.12 15.52 4.73-15.45h5.25l-7.8 22.99h-4.36l-5.15-14.93-5.16 14.93H66l-7.8-22.99zM91 42.32h5.12l2.09-5.12h9.65l2.09 5.12h5.25l-9.78-22.99h-4.63L91 42.32zm9.01-9.56l3.03-7.4 3.03 7.4h-6.06zm20.66 9.56h5.03v-18.2h6.94v-4.63h-18.92v4.63h6.94v18.2zm15.8 0h17.38v-4.47h-12.39v-4.79h10.76v-4.47h-10.76v-4.63h12.23V19.5h-17.22v22.82zm22.78 0h5.03v-7.3h3.94l4.89 7.3h5.87l-5.57-8.15c2.9-1.07 4.89-3.39 4.89-7.08v-.07c0-2.15-.69-3.94-1.96-5.21-1.5-1.5-3.75-2.32-6.65-2.32h-10.44v22.83zm5.02-11.74v-6.55h4.99c2.44 0 3.95 1.11 3.95 3.26v.07c0 1.92-1.4 3.23-3.85 3.23h-5.09zm19.56 11.74h15.71v-4.57h-10.69V19.49h-5.02v22.83zm16.48-11.35c0 6.49 5.06 11.74 12.1 11.74s12.16-5.31 12.16-11.81v-.06c0-6.49-5.06-11.74-12.1-11.74-7.05 0-12.17 5.32-12.17 11.81v.06m19.03 0c0 3.92-2.8 7.11-6.84 7.11-4.05 0-6.92-3.26-6.92-7.18v-.06c0-3.91 2.8-7.11 6.85-7.11 4.04 0 6.91 3.27 6.91 7.17v.07m6.66 0c0 6.49 5.05 11.74 12.1 11.74 7.04 0 12.16-5.31 12.16-11.81v-.06c0-6.49-5.05-11.74-12.1-11.74-7.04 0-12.16 5.32-12.16 11.81v.06m19.01 0c0 3.92-2.81 7.11-6.85 7.11-4.04 0-6.91-3.26-6.91-7.18v-.06c0-3.91 2.81-7.11 6.85-7.11 4.05 0 6.92 3.27 6.92 7.17v.07M70.95 7.94c0 3.09 1.73 4.67 4.55 4.67s4.61-1.56 4.61-4.75V1.93H77.8v6.03c0 1.67-.86 2.52-2.27 2.52-1.41 0-2.27-.89-2.27-2.6V1.93h-2.31v6.01m15.32 4.51h2.28V5.76l5.09 6.68h1.97V1.93h-2.28v6.48L88.4 1.93h-2.13v10.52zm15.92 0h2.31V1.93h-2.31v10.52zm12.25.07h2.04l4.25-10.59h-2.49l-2.75 7.41-2.75-7.41h-2.55l4.25 10.59zm11.87-.07h8.01v-2.06h-5.71V8.18h4.96V6.12h-4.96V3.99h5.63V1.93h-7.93v10.52zm16.33-5.41V4.02h2.3c1.13 0 1.82.51 1.82 1.5v.03c0 .89-.65 1.49-1.77 1.49h-2.35zm-2.31 5.41h2.31V9.08h1.82l2.25 3.37h2.71l-2.57-3.75c1.34-.5 2.25-1.56 2.25-3.26V5.4c0-.99-.32-1.82-.9-2.4-.69-.69-1.73-1.07-3.07-1.07h-4.81v10.52zm14.09-1.53c1.26 1.13 2.87 1.68 4.46 1.68 2.27 0 3.86-1.17 3.86-3.26v-.03c0-1.83-1.2-2.6-3.33-3.16-1.82-.47-2.27-.69-2.27-1.38v-.03c0-.51.47-.92 1.35-.92.89 0 1.8.39 2.73 1.04l1.2-1.74c-1.07-.86-2.37-1.34-3.91-1.34-2.15 0-3.68 1.26-3.68 3.17v.03c0 2.09 1.37 2.67 3.49 3.22 1.76.45 2.12.75 2.12 1.34v.03c0 .61-.57.99-1.52.99-1.2 0-2.19-.5-3.14-1.28l-1.36 1.64m14.39 1.53h2.31V1.93h-2.31v10.52zm11.34 0h2.31V4.07h3.2V1.93h-8.71v2.13h3.2v8.39zm14.2 0h2.31V8.26l4.04-6.33h-2.63l-2.55 4.22-2.51-4.22h-2.7l4.04 6.37v4.15zm28.26-5.23c0 1.8-1.29 3.28-3.15 3.28-1.86 0-3.19-1.5-3.19-3.31v-.03c0-1.8 1.29-3.28 3.16-3.28 1.86 0 3.19 1.5 3.19 3.31v.03m-8.76 0c0 2.99 2.33 5.41 5.57 5.41 3.25 0 5.6-2.45 5.6-5.44v-.03c0-2.99-2.33-5.41-5.57-5.41s-5.6 2.45-5.6 5.44v.03M230 12.45h2.31V8.38h5.02v-2.1h-5.02V4.04H238v-2.1h-8v10.51z"/><path fill="#FFF" d="M26.12 59.81l-.61-.29c-6.83-3.16-12.34-7.75-15.93-13.27C.94 33.01.66 19.34.36 4.86c-.02-1.1-.05-2.2-.07-3.3L.25.06h51.72l-.04 1.5c-.03 1.11-.05 2.22-.07 3.32-.3 14.47-.59 28.14-9.22 41.38-3.59 5.51-9.09 10.1-15.9 13.27l-.62.28z"/><path fill="#FFD54F" d="M26 17.89L5.74 33.84C2.48 23.75 2.57 13.21 2.31 2.47h47.28c-.26 10.77-.14 21.27-3.42 31.38L26 17.89zm.01 11.47L9.52 42.51s1.01 1.73 1.57 2.59c3.6 5.53 8.96 9.63 14.87 12.37 5.89-2.74 11.24-6.83 14.84-12.37.57-.88 1.11-1.76 1.61-2.65l-16.4-13.09z"/><path fill="#BA0C2F" d="M12.13 10.57c.02 0-.21.16-.19.16-.16.22-.15.24-.28.46-.13.21-.24.43-.31.65-.01.04-.09-.01-.14-.01-.07 0-.09-.04-.13-.04-.23.01-.21-.04-.39-.02-.12.01-.15.02-.31.06-.03.01-.12 0-.16-.01-.04-.01-.14.02-.17-.02-.07-.13-.02-.27-.08-.4-.04-.07-.2-.13-.27-.18-.08-.06-.17-.09-.26-.13-.08-.04-.14-.09-.22-.11-.09-.02-.33-.08-.4-.15-.16-.14-.22-.17-.35-.34-.19-.23-.21-.56-.39-.81-.18-.23-.4-.39-.73-.45-.65-.11.07-.14-.19-.61-.42-.79-1.01-.92-1.78-1.03-.17-.02-.22-.64-.62-.46.27-.6.62-.34.95-.66.18-.18 0-.22 0-.22-.09-.15-.28-.04-.39-.13a.925.925 0 01-.27-.32c-.05-.13.02-.28-.08-.4-.01-.02-.03-.06-.06-.04.2-.01.34-.15.49-.27.02-.02.05-.04.08-.05.15-.02.3-.03.43.01.21.05.27.16.22.12-.15-.13.24.12.24.27 0 .03.02.16.03.19.06.15.07.3.15.38.04.03.02.05.05.08.03.04.17.06.21.07.02.01.05.05.07.06.1.06.04.09.12.08.06-.01.04-.08.03-.13-.03-.21-.12-.48.06-.66.03-.03.04-.07.08-.09.03-.02.06-.07.09-.1.06-.08.06-.17.1-.26 0 .04.11.08.14.1.08.05.15.09.24.12.03.01.07.07.08.08.21.07.31.64.3.66-.51 2.26 1.62 4.04 4.01 4.55m-5.97.27c-.28-.15-.55-.14-.83-.1-.1.01-.19.16-.16.29.11-.12.28.06.27.1-.1.34-.16.39.29.68-1.67-.09-1.11 1.33-.91.99.08-.14.7.09.73.25.02.11-.04.23-.32.74-.06.11.24.8.27.64.05-.33.42-.21.59-.11.43-.21.31-.45.6-.49.45-.05.52.03.61.3.04.12-.03.31-.05.38.56.07.96-.68 1.47-.48.73.29 1.87.65 2.25.35.12-.09-.18-.79.09-1.62-1.2.59-2.54.22-3.66-.32-.64-.28-.54-1.22-1.24-1.6M9.48 7.4c.84 1.26 2.76.23 3.41.47-.88-1.54-2.39-.23-3.41-.47m8.48 2.24c.02-1.12-.37-2.41-1.09-3.3.05 1.15-.38 2.32-1.39 2.92-1.41.83-3.16 1.35-3.64 3.1-.18.64-.41 2.07-.1 2.7.11-.33.3-.64.68-.65 1.36-.05 1.76-.32 2.67-.98.33-.23 1.19.72 1.17.58-.02-.16-.06-.93.11-.79.32.26.85.41 1.31.42-1.11-1.25.26-2.67.28-4m-6.44 14.88c.17.04.04.18-.02.22-.14.09-.24.21-.33.35-.07.1-.11.22-.09.34.02.09.05.18.08.26.02.05.07.08.11.13.02.02.08.1.08.1-.04-.13.15-.27.19-.24.87.51.92-.52 1.44-.87.22-.15.72.02.59.48.52-.28.67-.98 1.08-1.41.9-.97 2.15-1.62 3.35-2.15-.43-.46-1.07-.84-1.39-1.37-.16-.26-.35-.77 0-.68 1.47.38 2.29-.51 2.45-1.67 2.17.28 2.74-1.77 3.03-3.32.14-.75.55-.82.1-2.1-.19-.54.96-.71.77-1.64-.06-.26-.37-.51-.56-.54.18.5-.66.63-.75.83-.14.32-.35.58-.38.91-.71-.98-.13-2.16.53-3.07.97-1.33 2.98-.63 3.83.23.02-.43-.32-.98-.6-1.25.79-.1 1.65.38 2.73-.19.62-.33 1.25-.61 1.54-1.35-1.32.18-3.12-.84-4.31-1.05-2.23-.39-3.72 1.13-4.52 2.94-.79 1.81-.28 3.16.58 4.51.22.34-.76.12-1.15.32-.38.19-.53.66-.44 1.07.48-.51 1.73-.19 1.85.68.16 1.18-1.03 2.89-2.18 2.38-1.23-.55-1.92-1.84-2.33-3.3-1.05.9-2.99.16-3.89 1.04-.86.84 1.33 1.41 2.19 1.8.31.15.63.47.58.87-1.34-.79-2.95.1-2.87 1.53.06 1.07 1.37 1.73 2.45 1.82.45.04.73.54.17.89-.97.6-2.04 1.28-3.08.19-.17-.18-.8-.07-.92.26-.06.16-.08.41-.05.57.06-.1.12-.24.21-.23.1.01.23.12.21.2-.09.54-.79.19-1.01.61-.01.01-.02.02-.02.03-.01.04-.03.06-.05.1-.14.28-.34.46.01.68-.01-.05.17.23.17.27.02-.26.28-.25.28-.25l.15.02.19.05zm-4.56-5.05c.11.02.21.15.12.24s-.23.14-.3.28c-.07.14-.03.4.03.5.06.1.18.17.27.24.02.01.12.1.14.11 0-.04-.08-.09 0-.19.02-.02.11-.06.14-.05.15.1.26.12.44.07a.5.5 0 00.28-.14c.17-.17.18-.35.32-.53l.29-.2c.24-.12 1.2.43.52 1.12.74-.47 2.06-1.16 3.1-.75-.65-1.03-.09-2.6 1.09-3-1.33-1.27-2.44-1.2-2.94.12-.25.66.52 1.43-.25 1.76-.43.18-.87.07-1.28-.08-.8-.28-.31-1.3-.96-1.83-.44-.35-1.49-.29-1.49.59.05-.05.15-.15.23-.06.17.46.17.59.62.7.1.03-.04.25-.12.23-.14-.04-.31-.03-.45-.09a.802.802 0 00-.55-.04c-.12.04-.23.11-.32.2-.03.03-.06.06-.09.1-.04.05-.06.1-.09.15-.06.12-.05.25-.05.37 0 .05-.01.09.01.14.02.04.02.09.04.12.04.04.07.09.12.13.14.13.31.25.5.26-.03-.02-.04-.08-.05-.11-.02-.06 0-.12.03-.18.05-.09.16-.05.24-.09.17-.06.31-.11.45-.07M32.47 7.83c.09.06-.01.23-.11.26-.13.04-.31-.02-.42.02-.5.18-.5 1.41-.43 1.27.07-.16.44-.05.68-.01.39.08.68-.7.93-.68.6.05 1.16.8 1.39 1.29.04.09-.25.09-.27.39.82-.08 1.51.45 2.1.94.29-.5.58-.81.9-1.13-1.23-1.2-3.67-1.56-3.29-3.74.05-.28-.27-.53-.41-.66-.16-.15-.52-.16-.74-.21.23.48-.19.53-.13 1.3 0 .02-.07.01-.1 0-.15-.06-.27-.16-.41-.24-.13-.08-.24-.06-.38-.04-.09.01-.16.05-.23.1-.12.08-.18.19-.26.31-.02.02-.03.05-.05.07-.03.03-.08.11-.08.15.06-.01.26.01.3.06.06.09.06.19.13.28.08.11.15.11.28.16.19.08.36.12.57.1m3.21-.87c-.2.02-.49-.15-.74-.11.6.94 1.74 1.19 2.68.44.1-.08.28-.05.43.02-.84-1-1.6-.41-2.37-.35m3.32 2.78c-.87.44-3.2 2.42-2.39 3.17-.1-.09 1.26.32 1.74.8.1.1.51-.95 2.24-.9.49.02.99.2 1.43.47-.27-1.95 1.05-3.84.39-5.75-.02-.04-.25-.8-.35-.5-.53 1.56-1.8 2.08-3.06 2.71m-3.45 12.7c.17.26-.06-.15.14.3.91-.38 1.86-.82 2.87-.41-.45-2.05 1.05-2.55 1.17-2.86.19-.49-.81-1.47-1.56-1.2-.96.34-.56 1.56-.74 2.41-.1.47-.68.81-1.17.65-.8-.27-1.12-1.02-1.31-1.85-.13-.55-1.21-.62-1.44-.17-.66 1.29.39-.15.33.83-.01.17-.77.04-.94.62-.12.39.26.66.73.8.09.02-.09-.2.03-.24.09-.03.43.15.39.18-.45.28-.57.92.24 1.2.01 0-.06-.23 0-.28.63-.47 1.29.04 1.3.02M21.8 35.4c.65 1.37 1.87.5 2.86.34-.16-.19-.72-.55-.86-.53-.99.16-1.24.54-2 .19m-.4.8c-.05-.05-.11-.07-.17-.1a.664.664 0 00-.2-.06c-.02-.01-.14-.03-.16-.04 0 .04.05.16.02.19-.08.08-.11.06-.17.15-.02.04-.05.08-.06.12-.02.09-.06.19-.07.29 0 .05.02.17.03.21.01.03.06.13.08.16l.11.12c.14.14.03.06.2.23.09.08-.04.23-.12.2-.59-.17-.67-.85-1.2-1.06-.39-.15-.95.15-1.01.74.13-.04.27.01.29.12.14.6 1.02.24 1.04.66.02.28-.65-.05-.92.13-.35.23-.4.91-.09 1.3.32-.3.71.14 1.02-.08.22-.15.29-.37.52-.47.67-.3.87.32.72.94.36-.17 1.22-.34 1.41-.4.35-.1.37-.91.8-1.21-.61 0-1.37-.27-1.54-.87-.02-.06.03-.14.03-.21.02-.23-.01-.45-.09-.66a.922.922 0 00-.05-.08l-.07-.1c-.06-.08-.15-.12-.24-.18-.04-.01-.09-.01-.11-.04m-4.52 4.23c.27.52-1.06-.31-1.55.46-.16.25-.07.81-.07 1.12.3-.28.61.25 1.18-.25.06.06.13.09.04.18-.21.21-.33.48-.22.73.07.17.54.5.55.47.05-.34.63 0 .72-.67.04-.28.12-.74.52-.57.36.15.44.56.36.98.58-.19 1.6-.79 2.22-.35.82.59 2.17.84 3.13 1.14-.64-.44-.84-1.6-.73-2.35-1.51.3-3.1.25-4.5-.4-.38-.18-.33-.62-.45-.99-.13-.41-.65-.79-1.12-.75-.25.02-.86.55-.74.57-.04-.01-.04.08-.06.11.11-.07.26 0 .31.12.04.09.07.18.15.25.07.09.22.11.26.2m3.63 8.26c.29-.36.54-.17.67-.17.31.01.28.44.25.72 1.2-.58 2.35-1.41 3.76-1.11-.82-.86-.53-2.71.63-2.93 0 0-.75-.12-.83-.17-1.01-.64-2.25-1.25-2.92.09-.34.67.28 1.21.75 1.76.08.1-.05.16-.16.19-1.11.28-3.14.45-3.23-1.2-.01-.17-.44-.3-.71-.3-.82.03-.81 1.07-.71 1 .18-.13.73-.09.66.33-.06.39-.82-.21-1.13.19-.25.33-.25.86-.07 1.22-.04-.13.12-.23.2-.24.85-.14.9.15.64.97-.02.06.25.58.43.63-.01-.01-.01-.12.01-.16.02-.04.07-.07.11-.08.09-.03.19-.03.28-.05.04-.01.08-.04.12-.07.07-.04.11-.1.16-.16.2-.25.37-.56.7-.6.15-.01.25.06.39.14m8.77 3.84c.77-.77 1.34-1.8 2.16-2.55-.91-.54-2.04-1.09-2.15-2.3-.01-.08.13-.17.16-.16 1.26.71 2.97.77 3.88-.53.73-1.04 1.05-2.74 2.49-2.83-.48-.92.06-1.98.84-2.46-.27-.1-.61-.32-.9-.26-.36.06-.52.55-.93.63.65-2.19-.61-5.25-3.02-5.19-.45.01-1.04.37-1.18.87-.14.46-.21 1.05.12 1.45.79.95 1.36 1.98 1.11 3.22.56-.48 1.08-1.2 1.06-1.96 0-.19.34-.06.4-.13.66-.97-.42-1.56-.99-2.17-.16-.17.24-.42.3-.4 2.07.62 2.26 3.16 1.38 4.82-.24-.3-1.11-.2-1.41-.3.97.49.72.56.68.72-.07.29-.94.17-1.11.38-.29.37-.51.53-.53 1.77.4-.43.93-1.09 1.5-.8 1.22.62-.06 2.73-1.21 3.08-.98.29-1.89-.02-2.49-.87-.88-1.23-.24-2.73-.86-3.98-.52.13-.4.81-.67.68-.96-.44-1.5-1.46-2.19-2.32-.29.1-.41.37-.69.36-.41-.02-1.18-.14-1.35.06-.19.24-.33 1.98 1.36 2.6 1.15.43 2.06.81 2.78 1.7-.49.04-.65-.2-1.05-.21-.39-.01-.64.14-.93.29-.28.15-.61.7-.56 1.14.26 2.1 2.73 2.13 3.87 3.46.2.22-.3 1.14-.76 1.51-.4.32-1.35-.48-1.19-1.15.12-.54-1.17-.9-1.63-.28.18-.02.23.1.21.18-.08.5.53.51.51.76-.03.35-.33-.14-.57-.19-.52-.11-1.04.08-1.35.5-.09.12-.3.33-.21.54.4-.2.61.43.98.23.23-.11.41-.32.69-.25.11.03.22.18.12.24-.73.47-1.31 1.12-.78 1.87.01-.17.15-.3.26-.33.21-.06.49.09.7.02.34-.11.16-.45.29-.69.2-.38.89-1.01 1.28-.55.07.08.02.39-.19.39.21 0 .41.21.59.17.05-.01.11-.01.15-.03.04-.02.09-.03.12-.06.09-.09.18-.18.2-.31.16.01.35.03.46-.1.1-.13.22-.24.33-.34m-3.6-15.15c-1.33.37-2.08 1.56-2.48 2.74-.03.08-.06.17-.09.47-.01.12.76-.81 1.3-.53.03.12-.11.68-.27.82.69-.1 1.61-.21 2.06-.7.07-.08.03.48.14.74.29.69.92 1.22 1.51 1.59.16.09.14-.31.46-.57.26-.21.74.24.96.34.19.08-.22-.62-.27-.84-.4-1.98.42-3.6.39-5.49 0-.34-.13-.9-.54-1.15-.31 1.5-1.81 2.2-3.17 2.58M14.74 5.95c-.43.2-1.42.34-1.25-.08.25-.61.84-.68 1.33.01 0 0-.03.04-.08.07m.96-.74c-.57.01-1.08-.48-1.64-.27-.64.24-1.26.54-1.95.72-.24.07-.67.34-.56.79.65-.25 1.51-.59 1.93.14.25.44.16.84-.03 1.37-.15.43-.92.56-1.49.49.1.07.21.3.12.46 1.3-.33 3.19.16 4.06-1.31.29-.5-.11-.99.03-1.49.07-.25.4-.4.54-.67.11-.21-.18-.49-.16-.69-.24.24-.5.45-.85.46m24.19.47c-.47.25-1.66.62-1.48.09.25-.71.94-.36 1.48-.09-.05.05.05-.03 0 0m.77 2.37c.55-.26.58-.99.79-1.51.14-.35.55-.33.7-.73.05-.11.05-.68-.04-.64-.35.15-.89.39-1.26.28-1.24-.35-1.56-.98-2.75-.1-.35.26-1.04-.02-1.48.55-.07.1-.05.35-.05.49.62.03 1.52-.67 1.9.05.06.12.13.24.14.37 0 .02.01.05.01.08.03.17.02.34 0 .5-.02.22-.12.39-.26.56-.05.05-.12.08-.17.12-.02.02-.05.04-.07.06-.07.05-.15.08-.22.11-.06.03-.11.04-.18.05-.04.01-.08.01-.11.01l-.22-.02c-.15.01-.17-.07-.27.02-.08.06-.09.17-.1.27.09 0 .19.02.28.05.13.05.27.08.41.11.25.04.29.02.54.03.1 0 .42-.01.53-.01.1 0 .15 0 .26-.02.17-.02.13 0 .32-.05.07-.02.25-.1.32-.14.13-.08.25-.17.38-.26.21-.14.52-.14.71-.3M25.84 34.44a.368.368 0 01-.19-.11.37.37 0 01-.06-.29c.02-.08.07-.13.13-.18.06-.05.15-.05.21-.08.04-.02.06-.06.11-.08.04-.01.07-.02.1-.01.13.02.23.12.36.13.18.02.34.03.52.07.01 0 .02.02.01.02-.04.05-.08.1-.14.13-.21.13-.84.48-1.05.4m1.63-.96c-.83-.19-1.49-.4-2.09.01.02-.01-.46.51-.44.51-.92-.05-1.51.57-1.37.95.34-.15.67-.45 1.04-.25.32.17.47 1.03.34 1.38-.1.25-.43.57-.86.59-.2.01-.09.28-.1.43 1.23-.1 2.57-.79 3.64-1.36.54-.29.53-.84.72-1.4.13-.36.81-.46.64-1.2-.37.49-.97.47-1.52.34m16.71-5.22c-.02-.18.43-.72.45-1.12.04-1.35.85-1.98.88-3.43.01-.38-1.55-.73-1.62-1.54-.03-.4-.17-.98.24-.97.52.01 1.02-.08 1.39-.41 1.63-1.43.25-3.39.06-5.12-.04-.38.66-1.2.64-1.47-.11-1.47-.38-2.81.14-4.25-.41.37-.53.97-.88 1.28-.17.15-.25-.19-.24-.24.21-1.27.71-2.38 1.3-3.58.69-1.43.35-2.59-.94-3.01-1.18-.39-2.32.7-2.44 1.83-.12 1.03.2 2.27.45 3.12.07.25.03.53.08.74.21-.86.23-1.75.22-2.65 0-.22.17-.52.4-.58.77-.22 1.16.33 1.11.76-.17 1.35-.44 2.39-.77 3.74-.37 1.53.18 3.06.34 4.55-.59-.35-1.23-.36-1.46.55-.12.49.32 1 .45 1.43.01-.59.57-1.39 1.11-1.03.66.44.68 2.54.54 2.82-.32.61-.85 1.05-1.58.83-.41-.12-.24-.73-.49-.99-1.31-1.36-1.91-2.98-2.02-4.86-.02-.27.12-1 .09-1.01-1.72-.71-2.51 0-3.22 1.01-.12-.31-.78-.74-.83-.64-.33.6-.23 1.7.26 2.13 1.32 1.15 2.64 1.91 3.38 3.55-.79.1-1.57.33-1.87 1.16-.32.87-.21 2.07.71 2.42.75.29 2.03-.03 2.31 0 .79.1 1.68.79 1.55 1.54-.01.04-.34 1.79-1.1 1.35-.41-.23-.18-1.19-.81-1.35-.84-.2-1.05.97-.94.87.27-.26.45.17.98.46-1.76-.38-1.22 1.23-1.15 1.06.09-.25.41.01 1.04-.03.02 0-.14.13-.15.15-.1.16-.15.24-.22.41-.03.08-.03.17-.02.25.01.09.04.16.08.24.01.02.03.03.04.04.01 0 .03.04.04.04.04.01-.04-.12.07-.13.02 0 .1-.01.12-.01.05.02.11.05.15.06l.14.03c.12.02.16.02.27-.02.09-.03.18-.05.26-.11-.11.08.12-.11.11-.09.11-.23.18-.17.2-.21.19-.36.35-.39.76-.34.04 0 .12.09.14.13.03.04.11.27.1.19.03.19.13.29.15.45M31.64 12.34c.09.08-.13.16-.18.09-.77-.91-2.07-.78-1.97.67.49-.25.56.43.88.24.27-.16.5-.35.78-.22.17.08.12.39-.02.44-1.42.5-.28 1.43-.5 1.63.2-.17.79-.17 1.34-1.01.12-.17.8-.19 1.05-.11.39.12-.03.71.15.68.42-.07 1.3.41 1.67.77.84.8 1.49.69 2.46 1.21-.67-.61-.67-1.67-.46-2.51-.86.01-1.71-.25-2.55-.45-1.61-.4-1.51-2.06-1.8-2.73l-.1-.11c-.08-.28-.43-.4-.7-.44-.03 0-.06-.01-.09-.02-.07-.02-.15-.02-.22-.02.09.03.09.13.04.19-.01.01-.01.03-.02.02.01.03-.03.03-.03.05-.01.02-.04.03-.05.05-.01.01 0 .02-.01.03-.23.17-.26.46-.19.72.02.05.03.1.07.14a.5.5 0 00.07.08c.07.07.11.23.22.3l.16.31z"/><path d="M49.06 5.68c-.2 9.57-.4 18.77-3.21 27.66L26 17.57 6.06 33.38c-2.83-8.9-3.02-18.12-3.22-27.71l-.06-2.74h46.34l-.06 2.75m-8.64 39.17c-3.26 5-8.26 9.19-14.46 12.11-6.21-2.92-11.22-7.1-14.48-12.11a44.79 44.79 0 01-1.53-2.53L26 29.6l15.98 12.69c-.49.85-1 1.71-1.56 2.56M7.03 36.14L26 21.11 44.89 36.1c-.48 1.24-1.01 2.47-1.6 3.69L26 26.07 8.64 39.84c-.6-1.23-1.13-2.46-1.61-3.7M1.84 2.01l.01.47c.03 1.07.05 2.14.07 3.21.29 13.91.56 27.05 8.79 39.67 3.39 5.21 8.6 9.54 15.06 12.53l.19.09.19-.09c6.45-3 11.65-7.33 15.04-12.53 8.22-12.61 8.5-25.75 8.79-39.65.02-1.07.05-2.14.07-3.22l.01-.47H1.84z"/></svg>