<svg xmlns="http://www.w3.org/2000/svg" viewBox="0 0 46.2 34" height="34" width="100"><path d="M84.68.545c-.955.002-1.91-.002-2.864.003-1.043.066-1.986.91-2.15 1.944-1.41 9.61-2.816 19.221-4.224 28.831-.191 1.162.773 1.625 1.804 1.63h2.558c1.199.034 2.213-.91 2.373-2.077l1.259-8.594c.232-1.668.71-3.201 2.021-4.361 1.28-1.12 2.842-1.709 4.552-1.502 1.896.237 2.658 1.551 2.752 3.345.051 1.03-.114 1.972-.256 2.982l-1.265 8.748c-.207 1.004 1.057 1.445 1.855 1.43h2.658c.942-.032 1.812-.703 2.121-1.587.091-.245.109-.507.153-.762l1.57-10.179c.472-3.168-.129-6.146-2.764-8.15-1.467-1.113-3.199-1.512-5.017-1.49-2.735.027-4.947.749-7.058 2.551L86.4 1.94c.068-.44-.157-.8-.52-1.043-.354-.234-.78-.338-1.2-.35zm-30.942.99a4.306 4.306 0 00-.445.016c-2.068.187-3.726 1.976-3.845 4.04-.1 1.714 1.08 3.106 2.793 3.253 2.076.179 4.056-1.274 4.51-3.306.496-2.22-.84-3.97-3.013-4.003zm-50.915.363c-.858-.045-1.503 1.01-1.692 1.765-.253.993-.507 1.987-.758 2.98-.265 1.123.293 2.37 1.281 2.95.213.128.449.207.675.305l7.918 3.262c-.401 2.892-.804 5.784-1.207 8.676-.06.412-.111.827-.133 1.244-.312 5.788 4.07 10.014 9.819 9.838 2.693-.082 5.093-1.07 7.181-2.77 2.443 2.489 5.794 3.212 9.134 2.556 4.798-.94 8.963-5.086 9.928-9.869.11-.542.178-1.092.254-1.639l1.194-8.671a1.035 1.035 0 00-.211-.797c-.397-.509-1.117-.71-1.737-.715h-2.977c-1.078.034-2.074.834-2.366 1.868-.056.19-.075.39-.103.587l-1.095 7.953c-.302 2.036-1.247 3.804-3.498 4.183-2.214.38-4.001-1.197-3.739-3.432l.702-5.133c.02-.178.065-.355.045-.534a1.839 1.839 0 00-.695-1.344 1.95 1.95 0 00-1.223-.4h-2.68c-.173 0-.347-.007-.519.017-1 .128-1.885.899-2.15 1.871-.03.152-.045.307-.069.46-.222 1.567-.441 3.134-.663 4.7-.205 1.639-1.148 2.987-2.71 3.597a3.695 3.695 0 01-2.273.14c-1.58-.429-2.423-1.991-2.174-3.585l1.61-11.574c.207-1.261-.495-2.556-1.704-3.015C11.86 5.578 7.533 3.781 3.204 1.99a1.119 1.119 0 00-.38-.09zm65.048 8.375a13.31 13.31 0 00-3.96.61c-3.209.993-5.976 3.43-6.365 6.907-.198 1.768.206 3.369 1.639 4.504 1.154.926 2.796 1.565 4.185 1.993 1.148.355 3.834.932 4.368 2.085.139.3.09.653-.043.946-.543 1.176-2.338 1.241-3.441 1.19a9.82 9.82 0 01-3.93-1.033c-.652-.317-1.322-.728-1.965-1.078a1.363 1.363 0 00-1.642.358l-1.723 2.273c-.1.134-.211.265-.273.423-.146.343-.085.763.154 1.05.432.56 2.371 1.608 3.03 1.904.774.349 1.581.616 2.404.82 2.759.69 5.811.702 8.457-.435 3.178-1.367 5.294-4.026 5.409-7.544.043-1.318-.232-2.633-1.193-3.6-.726-.742-2.321-1.473-3.32-1.791-.89-.289-1.794-.537-2.696-.79-.713-.205-2.967-.715-3.156-1.63a1.234 1.234 0 01.299-1.076c1.263-1.363 4.775-.69 6.233-.024.589.258 1.38.878 1.94.971.608.107 1.024-.299 1.369-.74l1.142-1.454c.53-.635.577-1.604.155-2.306-.224-.35-.387-.492-.733-.724-1.882-1.234-4.109-1.81-6.344-1.809zm-16.723.734c-.118 0-.236.004-.354.016a2.363 2.363 0 00-1.946 1.63c-.066.212-.083.435-.117.653l-2.572 18.29c-.062.455.24.832.62 1.047.37.209.804.29 1.227.28h2.597c.953-.036 1.83-.738 2.102-1.647.046-.149.067-.304.088-.458.864-6.146 1.73-12.293 2.593-18.439a.91.91 0 00-.05-.486c-.205-.508-.784-.765-1.29-.85-.233-.037-.469-.035-.703-.035H51.148z" fill="#fff" fill-rule="evenodd"/></svg>